<svg xmlns="http://www.w3.org/2000/svg" width="508" height="112" viewBox="0 0 508 112"><svg x="16" y="16" width="36" height="36" viewBox="0 0 36 36" xmlns="http://www.w3.org/2000/svg"><line x1="2" y1="2" x2="34" y2="2" stroke="currentColor" stroke-width="2" stroke-linecap="round"/><line x1="2" y1="2" x2="2" y2="34" stroke="currentColor" stroke-width="2" stroke-linecap="round"/><line x1="34" y1="2" x2="34" y2="34" stroke="currentColor" stroke-width="2" stroke-linecap="round"/></svg><svg x="60" y="16" width="36" height="36" viewBox="0 0 36 36" xmlns="http://www.w3.org/2000/svg"><line x1="2" y1="2" x2="34" y2="2" stroke="currentColor" stroke-width="2" stroke-linecap="round"/><line x1="34" y1="2" x2="34" y2="34" stroke="currentColor" stroke-width="2" stroke-linecap="round"/><line x1="34" y1="34" x2="2" y2="34" stroke="currentColor" stroke-width="2" stroke-linecap="round"/><line x1="2" y1="34" x2="2" y2="2" stroke="currentColor" stroke-width="2" stroke-linecap="round"/></svg><svg x="104" y="16" width="36" height="36" viewBox="0 0 36 36" xmlns="http://www.w3.org/2000/svg"><line x1="34" y1="2" x2="34" y2="34" stroke="currentColor" stroke-width="2" stroke-linecap="round"/><line x1="2" y1="34" x2="34" y2="34" stroke="currentColor" stroke-width="2" stroke-linecap="round"/><circle cx="18" cy="18" r="2" fill="currentColor"/></svg><svg x="192" y="16" width="36" height="36" viewBox="0 0 36 36" xmlns="http://www.w3.org/2000/svg"><line x1="2" y1="2" x2="34" y2="2" stroke="currentColor" stroke-width="2" stroke-linecap="round"/><line x1="34" y1="2" x2="34" y2="34" stroke="currentColor" stroke-width="2" stroke-linecap="round"/><circle cx="18" cy="18" r="2" fill="currentColor"/></svg><svg x="236" y="16" width="36" height="36" viewBox="0 0 36 36" xmlns="http://www.w3.org/2000/svg"><line x1="2" y1="2" x2="34" y2="2" stroke="currentColor" stroke-width="2" stroke-linecap="round"/><line x1="34" y1="2" x2="34" y2="34" stroke="currentColor" stroke-width="2" stroke-linecap="round"/><circle cx="12" cy="18" r="2" fill="currentColor"/><circle cx="24" cy="18" r="2" fill="currentColor"/></svg><svg x="324" y="16" width="36" height="36" viewBox="0 0 36 36" xmlns="http://www.w3.org/2000/svg"><line x1="2" y1="2" x2="34" y2="2" stroke="currentColor" stroke-width="2" stroke-linecap="round"/><line x1="34" y1="2" x2="34" y2="34" stroke="currentColor" stroke-width="2" stroke-linecap="round"/><line x1="2" y1="34" x2="34" y2="34" stroke="currentColor" stroke-width="2" stroke-linecap="round"/></svg><svg x="368" y="16" width="36" height="36" viewBox="0 0 36 36" xmlns="http://www.w3.org/2000/svg"><line x1="2" y1="2" x2="34" y2="2" stroke="currentColor" stroke-width="2" stroke-linecap="round"/><line x1="2" y1="2" x2="2" y2="34" stroke="currentColor" stroke-width="2" stroke-linecap="round"/></svg><svg x="412" y="16" width="36" height="36" viewBox="0 0 36 36" xmlns="http://www.w3.org/2000/svg"><line x1="2" y1="2" x2="34" y2="2" stroke="currentColor" stroke-width="2" stroke-linecap="round"/><line x1="34" y1="2" x2="34" y2="34" stroke="currentColor" stroke-width="2" stroke-linecap="round"/></svg><svg x="16" y="60" width="36" height="36" viewBox="0 0 36 36" xmlns="http://www.w3.org/2000/svg"><line x1="2" y1="2" x2="34" y2="2" stroke="currentColor" stroke-width="2" stroke-linecap="round"/><line x1="2" y1="2" x2="2" y2="34" stroke="currentColor" stroke-width="2" stroke-linecap="round"/><circle cx="18" cy="18" r="2" fill="currentColor"/></svg><svg x="60" y="60" width="36" height="36" viewBox="0 0 36 36" xmlns="http://www.w3.org/2000/svg"><line x1="2" y1="2" x2="2" y2="34" stroke="currentColor" stroke-width="2" stroke-linecap="round"/><line x1="2" y1="34" x2="34" y2="34" stroke="currentColor" stroke-width="2" stroke-linecap="round"/></svg><svg x="104" y="60" width="36" height="36" viewBox="0 0 36 36" xmlns="http://www.w3.org/2000/svg"><line x1="2" y1="2" x2="34" y2="2" stroke="currentColor" stroke-width="2" stroke-linecap="round"/><line x1="2" y1="2" x2="2" y2="34" stroke="currentColor" stroke-width="2" stroke-linecap="round"/><line x1="2" y1="34" x2="34" y2="34" stroke="currentColor" stroke-width="2" stroke-linecap="round"/><circle cx="18" cy="18" r="2" fill="currentColor"/></svg><svg x="148" y="60" width="36" height="36" viewBox="0 0 36 36" xmlns="http://www.w3.org/2000/svg"><line x1="2" y1="2" x2="2" y2="34" stroke="currentColor" stroke-width="2" stroke-linecap="round"/><line x1="34" y1="2" x2="34" y2="34" stroke="currentColor" stroke-width="2" stroke-linecap="round"/><line x1="2" y1="34" x2="34" y2="34" stroke="currentColor" stroke-width="2" stroke-linecap="round"/><circle cx="12" cy="18" r="2" fill="currentColor"/><circle cx="24" cy="18" r="2" fill="currentColor"/></svg><svg x="192" y="60" width="36" height="36" viewBox="0 0 36 36" xmlns="http://www.w3.org/2000/svg"><line x1="34" y1="2" x2="34" y2="34" stroke="currentColor" stroke-width="2" stroke-linecap="round"/><line x1="2" y1="34" x2="34" y2="34" stroke="currentColor" stroke-width="2" stroke-linecap="round"/><circle cx="12" cy="18" r="2" fill="currentColor"/><circle cx="24" cy="18" r="2" fill="currentColor"/></svg></svg>