<?xml version="1.0" encoding="UTF-8" standalone="no"?>
<!-- Created with Inkscape (http://www.inkscape.org/) -->

<svg
   width="97.676216mm"
   height="6.2011371mm"
   viewBox="0 0 97.676216 6.2011371"
   version="1.1"
   id="svg1"
   xml:space="preserve"
   sodipodi:docname="separator.svg"
   inkscape:version="1.4.4 (dcaf3e7d9e, 2026-05-05)"
   xmlns:inkscape="http://www.inkscape.org/namespaces/inkscape"
   xmlns:sodipodi="http://sodipodi.sourceforge.net/DTD/sodipodi-0.dtd"
   xmlns="http://www.w3.org/2000/svg"
   xmlns:svg="http://www.w3.org/2000/svg"><sodipodi:namedview
     id="namedview1"
     pagecolor="#ffffff"
     bordercolor="#000000"
     borderopacity="0.25"
     inkscape:showpageshadow="2"
     inkscape:pageopacity="0.0"
     inkscape:pagecheckerboard="0"
     inkscape:deskcolor="#d1d1d1"
     inkscape:document-units="mm"
     inkscape:zoom="25.419187"
     inkscape:cx="179.66743"
     inkscape:cy="20.476658"
     inkscape:window-width="2493"
     inkscape:window-height="1371"
     inkscape:window-x="0"
     inkscape:window-y="0"
     inkscape:window-maximized="1"
     inkscape:current-layer="layer1"
     inkscape:lockguides="false" /><defs
     id="defs1" /><g
     id="layer1"
     transform="matrix(0.4302875,0,0,0.4302875,9.7127239,-10.646983)"
     style="stroke-width:2.32403"><path
       style="fill:#000000;stroke-width:2.32403"
       d="M 86.805109,34.657637 C 86.022762,34.383919 85.191448,34.049846 84.818095,33.318013 L 84.63948,33.028375 h 0.969316 c 0.802887,0 1.037481,0.033 1.366329,0.192191 0.275148,0.133197 0.501112,0.117753 0.736141,0.08623 0.18652,-0.02502 1.166753,-0.305792 2.060032,-0.727424 2.519274,-1.189108 2.768541,-1.440478 3.839033,-1.440478 0.586691,0 0.618331,0.01126 0.750662,0.267157 0.174176,0.336819 0.177137,0.771046 0.0068,1.10034 -0.122834,0.23753 -0.17686,0.257032 -0.837601,0.302344 -0.826749,0.0567 -1.28802,0.245146 -2.949763,1.076926 -2.010387,1.006295 -2.81571,1.107733 -3.775372,0.771977 z m 6.011273,0.163191 c -0.625781,-0.190355 -1.631853,-0.683843 -1.484139,-0.831557 0.044,-0.044 0.423899,-0.219711 0.844223,-0.390467 0.691392,-0.280881 0.799081,-0.301064 1.130077,-0.211801 1.029906,0.277751 1.902658,-0.708954 1.711993,-1.725302 -0.07898,-0.421013 -0.515604,-0.917064 -0.926581,-1.052698 -0.444218,-0.146605 -0.837851,-0.133036 -1.580614,0.251345 -0.354086,0.183239 -0.564285,0.201411 -0.60573,0.156581 -0.04058,-0.04389 -0.267664,-0.320616 -0.504638,-0.614944 -0.512924,-0.637058 -0.612051,-0.184724 0.809379,-0.883019 0.903541,-0.443876 0.884718,-0.380807 1.578438,-0.379515 0.551925,10e-4 0.830687,0.04867 1.154718,0.197336 0.600746,0.275629 1.273807,0.66476 1.564469,1.265331 0.211002,0.435983 0.247108,0.627037 0.250294,1.324438 0.0034,0.713243 -0.106481,0.830891 -0.327914,1.281826 -0.325735,0.663316 -1.0071,1.261446 -1.670237,1.509558 -0.514984,0.192681 -1.480532,0.243788 -1.943738,0.102888 z m 4.179658,-3.571377 h 1.344851 40.809939 l 0.30787,0.307874 c 0.23918,0.239186 0.30788,0.108941 0.30788,0.369231 0,0.260291 -0.0687,0.06163 -0.30788,0.300812 l -0.30787,0.307874 H 98.338498 96.991259 c 0.143423,-0.447202 0.10848,-0.84105 0.0048,-1.285791 z M 42.38499,32.381314 C 41.997472,32.055242 41.9916,31.71049 42.37108,31.331008 l 0.264688,-0.264689 42.753604,0.188157 h 3.134575 l 0.514544,0.290708 c 0.336588,0.190166 0.531649,0.519492 0.531649,0.569148 0,0.04966 -0.281523,0.223763 -0.607403,0.381373 l -0.248194,0.120037 H 85.327531 42.663594 Z m 47.18664,-0.898648 c -0.915253,-0.926765 -1.84635,-1.241062 -2.571498,-0.863093 -0.312492,0.162879 -0.526039,0.193073 -1.365536,0.193073 H 84.63948 l 0.175038,-0.339568 c 0.314247,-0.609629 0.806704,-0.9439 1.437825,-1.2546 0.552166,-0.27183 0.677488,-0.297749 1.422382,-0.294169 0.630461,0.003 0.935537,0.05095 1.336904,0.21001 0.730003,0.289291 1.526277,0.844816 2.111931,1.593307 l 0.440096,0.549175 -0.740123,0.34789 c -0.407067,0.191339 -0.746412,0.34789 -0.754098,0.34789 -0.0077,0 -0.231699,-0.220462 -0.497805,-0.489915 z"
       id="path1"
       sodipodi:nodetypes="cscsssssscssccsssssssssscsscssssccsssccccsscccssscccsssscsscsscssss" /></g></svg>
