<svg xmlns="http://www.w3.org/2000/svg" viewBox="0 0 24 24" fill="currentColor" role="img" aria-hidden="true">
  <path d="m 11.511462,21.040161 c -0.293271,-0.0199 -0.819439,-0.08019 -1.057402,-0.121163 l -0.21549,-0.0371 0.216593,-0.229601 c 0.665221,-0.705169 0.997237,-1.558155 1.098471,-2.82209 l 0.03996,-0.498897 0.405712,6.42e-4 0.405712,6.42e-4 0.01534,0.103091 c 0.0084,0.0567 0.02395,0.249997 0.03447,0.429547 0.06688,1.141402 0.439093,2.085135 1.113383,2.822916 l 0.17581,0.192365 -0.19705,0.03808 c -0.459117,0.08874 -1.55507,0.154209 -2.035512,0.121603 z M 8.4401912,20.333877 c -0.50226,-0.196703 -1.813537,-0.929106 -1.892661,-1.057131 -0.0095,-0.01532 0.156389,-0.02021 0.368577,-0.01086 1.526911,0.0673 2.8640623,-0.823205 3.0646313,-2.04095 l 0.023382,-0.14198 0.143712,0.04303 c 0.07904,0.02367 0.257331,0.06324 0.396199,0.08795 l 0.252487,0.04491 -0.02401,0.225853 c -0.10989,1.033599 -0.644184,2.014927 -1.4017533,2.574575 -0.171021,0.126341 -0.608728,0.385251 -0.645614,0.38189 -0.0079,-7.33e-4 -0.136109,-0.049 -0.284952,-0.107291 z M 14.91374,20.244887 C 13.952609,19.653646 13.391988,18.714464 13.215395,17.39973 l -0.01867,-0.139007 0.317145,-0.06289 c 0.551035,-0.10928 0.50599,-0.109455 0.507329,0.002 0.01262,1.049641 1.424759,2.053547 2.892245,2.056125 0.31563,5.51e-4 0.563049,0.01141 0.549819,0.02412 -0.255505,0.245513 -1.997049,1.162435 -2.207857,1.162435 -0.01125,0 -0.165,-0.08892 -0.341666,-0.197592 z M 6.4428082,18.225902 c -1.101426,-0.208127 -1.997098,-1.020312 -2.682513,-2.432469 -0.259792,-0.535248 -0.262229,-0.567285 -0.02767,-0.363755 1.583604,1.374123 3.847239,1.052342 5.177004,-0.735921 0.202732,-0.272633 0.193425,-0.279807 0.278348,0.214573 0.07462,0.434403 0.07248,0.574249 -0.0095,0.618108 -0.350501,0.187582 -0.37925,0.840719 -0.04846,1.100919 l 0.08852,0.06963 -0.07502,0.19751 c -0.383957,1.010918 -1.495886,1.559073 -2.700741,1.331403 z m 10.1373058,0.02998 c -0.939565,-0.145572 -2.061534,-1.265599 -1.675465,-1.672564 0.303855,-0.320302 0.293435,-0.653291 -0.03148,-1.005774 l -0.137557,-0.149233 0.05352,-0.353703 c 0.02944,-0.194536 0.0703,-0.412117 0.0908,-0.483513 l 0.03728,-0.12981 0.234104,0.301629 c 1.344533,1.732351 3.499214,2.026571 5.085752,0.694456 l 0.242097,-0.203273 -0.07043,0.178677 c -0.768133,1.948771 -2.279412,3.063137 -3.828636,2.823108 z M 11.185006,16.55825 C 10.593831,16.49155 9.9545225,16.320653 9.7491765,16.174435 l -0.1016823,-0.0724 0.08148,-0.06214 c 0.4948248,-0.377352 2.3754688,-0.54688 3.5645308,-0.321319 0.533667,0.101235 1.100563,0.317046 1.049567,0.399558 -0.188546,0.305076 -2.052557,0.564849 -3.158068,0.440117 z M 5.6970612,15.250798 C 3.4588362,14.922597 2.2088562,12.054456 3.3245242,9.8068912 4.3312182,7.7788605 6.6107712,7.3300539 8.2297232,8.8411365 l 0.240546,0.224519 -0.253944,-0.08429 c -2.402674,-0.797502 -4.613399,0.7312867 -4.366047,3.0192635 0.16122,1.491261 1.375905,2.622697 2.955733,2.75316 0.14044,0.0116 0.33927,0.02973 0.441846,0.04029 l 0.186502,0.0192 -0.158882,-0.176715 c -0.631016,-0.701842 -0.245147,-1.565105 0.62779,-1.404487 0.406566,0.07481 0.841256,0.384525 0.758005,0.540081 -0.513273,0.959058 -1.875036,1.638345 -2.964211,1.478635 z m 11.8452378,0.0012 c -0.83568,-0.129539 -1.54336,-0.584223 -2.116163,-1.359598 l -0.141724,-0.191844 0.115213,-0.118974 c 0.459629,-0.474634 1.327059,-0.481109 1.569589,-0.01172 0.152117,0.294409 0.04458,0.762495 -0.242555,1.055823 -0.181411,0.185323 -0.180279,0.185926 0.27388,0.146072 1.941011,-0.170331 3.151678,-1.35781 3.15242,-3.092042 9.17e-4,-2.1667545 -2.081732,-3.4577145 -4.356422,-2.7003795 l -0.233759,0.07783 0.147849,-0.152409 c 2.024791,-2.0872456 5.23136,-0.575372 5.375298,2.5344145 0.103523,2.236609 -1.636282,4.108599 -3.543626,3.81286 z M 9.9820905,14.99062 c -0.261331,-1.588208 -1.1823943,-2.688484 -2.3537323,-2.8117 -0.896479,-0.0943 -1.72763,0.639836 -1.585528,1.400467 0.03704,0.198291 0.02849,0.19878 -0.242138,0.01384 -1.528073,-1.044234 -1.114675,-3.412014 0.67648,-3.8746078 2.406445,-0.6215027 3.8601788,1.1040598 4.2576658,5.0537948 l 0.01902,0.189 -0.299883,0.0597 c -0.164935,0.03284 -0.333685,0.06917 -0.374999,0.08075 -0.0657,0.01841 -0.07785,0.0044 -0.096891,-0.111247 z m 3.8489245,0.09337 c -0.0378,-0.01524 -0.18084,-0.04766 -0.317865,-0.07205 -0.289094,-0.05146 -0.274159,-0.01108 -0.213016,-0.575924 0.251552,-2.323889 1.003927,-3.980194 2.039318,-4.4894258 1.887736,-0.9284367 4.00585,0.1659798 3.772668,1.9493158 -0.108631,0.830797 -0.735273,1.845599 -1.13966,1.845599 -0.0098,0 -0.01779,-0.143039 -0.01779,-0.317865 0,-0.493029 -0.252736,-0.860587 -0.752587,-1.094495 -1.301597,-0.609091 -2.831348,0.614677 -3.150822,2.520591 -0.04656,0.277769 -0.06463,0.296987 -0.22024,0.234256 z m -2.265221,-0.526348 c -0.09808,-1.340301 -0.254919,-2.050932 -0.748947,-3.39342 -0.1704,-0.463052 -0.36051,-0.996549 -0.422466,-1.1855488 -0.6957885,-2.1225477 -0.22036,-4.5215069 1.299224,-6.5557463 0.3244,-0.4342682 0.284639,-0.4327651 0.598926,-0.022641 1.706764,2.2272106 2.049308,4.6114636 1.052425,7.3253281 -0.646821,1.760874 -0.816837,2.459326 -0.888873,3.651619 -0.03321,0.549621 0.01417,0.498273 -0.459751,0.498273 H 11.589054 Z M 14.958099,8.1831675 C 15.303133,6.4822189 14.548575,4.5150001 13.043596,3.1918337 12.735382,2.9208548 12.733255,2.9244453 13.124366,3.0554795 c 2.238475,0.7499578 3.183158,2.700857 2.255799,4.65853 -0.128181,0.270593 -0.447338,0.804204 -0.481,0.804204 -0.005,0 0.02155,-0.150771 0.05893,-0.335046 z m -6.0733078,0.05312 C 7.5353432,6.1322679 8.4031842,3.8567599 10.861443,3.0534386 c 0.171918,-0.05618 0.319446,-0.1021461 0.327839,-0.1021461 0.0084,0 -0.105114,0.1063257 -0.252237,0.2362794 -1.5181498,1.3409844 -2.2517558,3.247743 -1.9168208,4.9821196 0.07058,0.365503 0.05971,0.370852 -0.135433,0.0666 z m -1.68598,-0.9409466 c -0.933495,-0.444556 -1.943553,-0.483272 -2.704536,-0.103666 -0.128461,0.06408 -0.233564,0.10924 -0.233564,0.100354 0,-0.02581 0.338985,-0.524262 0.50987,-0.749725 0.800222,-1.0557958 1.753789,-1.8881871 2.93091,-2.5584597 0.478424,-0.2724223 0.504139,-0.2762814 0.310463,-0.046591 -0.776316,0.920673 -1.004322,2.1671877 -0.591075,3.2314297 0.123516,0.318093 0.149179,0.303457 -0.222068,0.126658 z M 16.586397,7.1619949 C 17.012526,6.1007439 16.78027,4.9066904 15.948169,3.8808437 l -0.124057,-0.1529428 0.343637,0.1817983 c 1.358582,0.7187457 2.87569,2.1474877 3.569937,3.3620027 0.01323,0.02315 -0.104189,-0.01943 -0.260935,-0.09461 -0.756139,-0.362671 -1.692162,-0.322131 -2.674172,0.115821 l -0.327354,0.145992 z"/>
</svg>
